Coordinates
version=1
nRows=18
nColumns=22
inDegrees=yes

Units are S.I. units (second, meters, Newtons, ...)
If the header above contains a line with 'inDegrees', this indicates whether rotational values are in degrees (yes) or radians (no).

endheader
time	pelvis_tilt	pelvis_list	pelvis_rotation	pelvis_tx	pelvis_ty	pelvis_tz	hip_flexion_r	hip_adduction_r	hip_rotation_r	knee_angle_r	ankle_angle_r	subtalar_angle_r	hip_flexion_l	hip_adduction_l	hip_rotation_l	knee_angle_l	ankle_angle_l	subtalar_angle_l	lumbar_extension	lumbar_bending	lumbar_rotation
      2.59000000	      2.35924242	      0.84788144	     67.22471988	     -0.24741827	      0.99340935	     -0.04450923	     23.25882294	      2.73008933	      1.03626099	    -24.71384669	     -0.73720934	      1.57743634	     -7.20106842	      3.00227926	      9.37211601	    -24.22863802	     18.69430452	     -4.05349461	    -12.27495424	      1.12667195	     -1.78599370
      2.60000000	      2.61006523	      0.83022006	     67.51126581	     -0.24309442	      0.99412281	     -0.05128351	     22.87385946	      2.98962233	      0.78804416	    -25.10673321	     -0.26003182	      1.20906090	     -7.12944097	      2.67603387	      9.38012467	    -25.35624414	     18.07451196	     -3.47158052	    -12.18413394	      1.51493894	     -1.72645349
      2.61000000	      2.91987872	      0.79301589	     67.85349551	     -0.23887791	      0.99501308	     -0.05812469	     22.35802223	      3.29552993	      0.49544441	    -25.28598651	      0.31483186	      1.02917157	     -6.98331047	      2.27889446	      9.41224258	    -26.60176267	     17.39984066	     -3.06015002	    -12.08921612	      1.98397884	     -1.67417933
      2.62000000	      3.24149423	      0.79437321	     68.19372395	     -0.23471157	      0.99613820	     -0.06495690	     21.71026600	      3.60533745	      0.21299068	    -25.30170514	      0.84557331	      0.80564636	     -6.80917488	      1.87669515	      9.37520854	    -27.93043276	     16.51624509	     -2.30597807	    -12.04369215	      2.44791357	     -1.61785803
      2.63000000	      3.58114954	      0.78416487	     68.57161991	     -0.23064491	      0.99737346	     -0.07178360	     20.98277456	      3.93302821	     -0.09312543	    -25.15804933	      1.36608990	      0.65458605	     -6.53965309	      1.44066923	      9.32008258	    -29.37865428	     15.52070286	     -1.64082606	    -11.98753136	      2.93701375	     -1.56586231
      2.64000000	      3.91564732	      0.77696006	     68.96606365	     -0.22666252	      0.99869339	     -0.07856645	     20.19613875	      4.26146564	     -0.39579003	    -24.89304722	      1.84793661	      0.50864883	     -6.18049507	      0.99602280	      9.21211616	    -30.93481293	     14.38634027	     -0.92057190	    -11.93194450	      3.41515246	     -1.50282609
      2.65000000	      4.22956445	      0.76965030	     69.36959648	     -0.22276345	      1.00003425	     -0.08526765	     19.38732510	      4.58063410	     -0.68379714	    -24.55045411	      2.28569240	      0.35652171	     -5.71814736	      0.55205700	      9.03397899	    -32.59841456	     13.13018880	     -0.15004027	    -11.87207947	      3.86389704	     -1.42446871
      2.66000000	      4.51265618	      0.76070980	     69.77380351	     -0.21895297	      1.00133940	     -0.09184234	     18.58653723	      4.88424391	     -0.94520134	    -24.16933501	      2.68216826	      0.19021638	     -5.14205904	      0.11384199	      8.76858595	    -34.37064413	     11.78770754	      0.67490906	    -11.80863649	      4.27062946	     -1.32615679
      2.67000000	      4.76198976	      0.74702664	     70.17332350	     -0.21523197	      1.00254917	     -0.09825822	     17.82066194	      5.17039221	     -1.18119423	    -23.78794268	      3.05164839	      0.00753309	     -4.44460032	     -0.32397174	      8.39739793	    -36.25018614	     10.41993869	      1.54487777	    -11.74430404	      4.63228337	     -1.20570627
      2.68000000	      4.97749061	      0.72563020	     70.56284836	     -0.21159353	      1.00362448	     -0.10448267	     17.10687836	      5.44165616	     -1.38197268	    -23.42966653	      3.39659836	     -0.19273903	     -3.62467254	     -0.77031586	      7.90881769	    -38.22471944	      9.08971560	      2.46857675	    -11.68185401	      4.94777316	     -1.06302868
      2.69000000	      5.17061983	      0.69357532	     70.94109712	     -0.20803204	      1.00453154	     -0.11050027	     16.45440263	      5.70777205	     -1.55857530	    -23.11318756	      3.73150178	     -0.40758931	     -2.68710280	     -1.24903359	      7.28893234	    -40.27875567	      7.88132034	      3.40753588	    -11.62716739	      5.23174416	     -0.89865838
      2.70000000	      5.35606214	      0.64652935	     71.31073650	     -0.20452498	      1.00525787	     -0.11629717	     15.86527239	      5.98412131	     -1.71912913	    -22.84292952	      4.05693867	     -0.63576456	     -1.63963411	     -1.79152654	      6.53262011	    -42.38861909	      6.86775354	      4.31183991	    -11.58346848	      5.49809322	     -0.71173023
      2.71000000	      5.54609943	      0.58759586	     71.67463555	     -0.20104685	      1.00581784	     -0.12187530	     15.32569937	      6.28202448	     -1.86493624	    -22.60827054	      4.37480477	     -0.87191306	     -0.50402718	     -2.42082487	      5.65070993	    -44.51715399	      6.08974526	      5.09033898	    -11.55912103	      5.75707316	     -0.51193847
      2.72000000	      5.75200265	      0.52217730	     72.03510876	     -0.19758736	      1.00624359	     -0.12725032	     14.82240522	      6.60906081	     -2.00454450	    -22.40375368	      4.67902427	     -1.11084248	      0.68949536	     -3.15243072	      4.66346911	    -46.61587377	      5.58273000	      5.63927604	    -11.55994308	      6.01993615	     -0.29966566
      2.73000000	      6.00650394	      0.50118759	     72.39744571	     -0.19412930	      1.00666848	     -0.13245900	     14.25945898	      6.98451386	     -2.12063147	    -22.17249412	      4.97003065	     -1.28427271	      1.85100055	     -4.00686729	      3.59942706	    -48.62810726	      5.34488204	      5.78806557	    -11.65202842	      6.30218198	     -0.08708967
      2.74000000	      6.24684285	      0.46028265	     72.75150037	     -0.19069455	      1.00697901	     -0.13747776	     13.76012426	      7.35833466	     -2.25211468	    -21.97937167	      5.25708775	     -1.49786118	      3.05495142	     -4.91908178	      2.50133517	    -50.52367031	      5.36862779	      5.74203307	    -11.73922237	      6.56223923	      0.15295949
      2.75000000	      6.45349071	      0.38248178	     73.09676976	     -0.18730526	      1.00717880	     -0.14232308	     13.34504450	      7.71212486	     -2.40567549	    -21.82113564	      5.51726962	     -1.81915074	      4.30694666	     -5.84879828	      1.40981180	    -52.26423274	      5.58981489	      5.22732310	    -11.79092567	      6.78538472	      0.42440918
      2.76000000	      6.69172797	      0.39260316	     73.42392476	     -0.18394861	      1.00755066	     -0.14709335	     12.81085005	      8.07894794	     -2.53693440	    -21.60970242	      5.74987199	     -2.03673860	      5.40931230	     -6.79962802	      0.35430378	    -53.77653846	      6.00330106	      4.36961439	    -11.96326507	      7.00398355	      0.72007410
